<?xml version="1.0" encoding="utf-8"?>
<!-- Generator: Adobe Illustrator 24.3.0, SVG Export Plug-In . SVG Version: 6.00 Build 0)  -->
<svg version="1.1" id="Layer_1" xmlns="http://www.w3.org/2000/svg" xmlns:xlink="http://www.w3.org/1999/xlink" x="0px" y="0px"
	 viewBox="0 0 115.2 115.2" style="enable-background:new 0 0 115.2 115.2;" xml:space="preserve">
<style type="text/css">
	.st0{fill:#FFFFFF;}
	.st1{fill:none;stroke:#E2E82D;stroke-width:6;stroke-linecap:round;stroke-miterlimit:10;}
	.st2{fill:#231F20;}
</style>
<circle class="st0" cx="57.6" cy="57.6" r="57.6"/>
<line class="st1" x1="67" y1="35.4" x2="44.7" y2="79.8"/>
<path class="st2" d="M39.8,67.8c-2,2.9-5.4,4.5-8.9,4.4c-7.3,0-12.4-5.3-12.4-12.6s5.1-12.6,12.4-12.6c3.2-0.1,6.3,1.3,8.3,3.8
	l-1.8,1.5c-1.5-2.1-3.9-3.3-6.5-3.3c-6.3,0-10.2,4.6-10.2,10.6s3.9,10.6,10.2,10.6c2.8,0,5.5-1.4,7.1-3.7L39.8,67.8z"/>
<path class="st2" d="M72.7,47.5h3.4l8.8,20.2l8.8-20.2h3.2v24.1h-2.2V50.4h-0.1l-9.2,21.2h-1L75,50.4l0,0v21.2h-2.3V47.5z"/>
</svg>
