<svg xmlns="http://www.w3.org/2000/svg" viewBox="0 0 612 40"><defs><style>.cls-1{fill:#6d81b6;opacity:0.25;}.cls-2{fill:#fff;}.cls-3{fill:none;stroke:#e2e82d;stroke-linecap:round;stroke-miterlimit:10;stroke-width:1.25px;}.cls-4{fill:#231f20;}</style></defs><g id="Layer_2" data-name="Layer 2"><g id="Layer_1-2" data-name="Layer 1"><rect class="cls-1" width="612" height="40"/><circle class="cls-2" cx="592" cy="20" r="10"/><line class="cls-3" x1="593.63" y1="16.15" x2="589.76" y2="23.85"/><path class="cls-4" d="M588.91,21.77a1.82,1.82,0,0,1-1.55.76,2.19,2.19,0,0,1,0-4.37,1.8,1.8,0,0,1,1.45.66l-.32.26a1.37,1.37,0,0,0-1.13-.57,1.72,1.72,0,0,0-1.77,1.84,1.72,1.72,0,0,0,1.77,1.84,1.55,1.55,0,0,0,1.24-.64Z"/><path class="cls-4" d="M594.62,18.25h.59l1.53,3.5,1.53-3.5h.55v4.18h-.38V18.75h0l-1.59,3.68h-.18L595,18.75h0v3.68h-.4Z"/></g></g></svg>